<svg width="564" height="493" viewBox="334 250 564 493" fill="none" xmlns="http://www.w3.org/2000/svg" role="img" aria-labelledby="title desc">
  <title id="title">GetMyBee bee mark</title>
  <desc id="desc">A geometric black and honey yellow bee mark.</desc>
  <g filter="url(#softShadow)">
    <path d="M478 274H596L678 412H516L468 328L478 274Z" fill="#FDBA00"/>
    <path d="M478 274H596L678 412H516L468 328L478 274Z" fill="url(#honeyGloss)" opacity="0.65"/>
    <path d="M438 462L664 422L722 562L654 656H456L374 522L438 462Z" fill="#FDBA00"/>
    <clipPath id="bodyClip">
      <path d="M438 462L664 422L722 562L654 656H456L374 522L438 462Z"/>
    </clipPath>
    <g clip-path="url(#bodyClip)">
      <rect x="464" y="420" width="56" height="282" transform="rotate(-16 464 420)" fill="#151515"/>
      <rect x="586" y="398" width="62" height="294" transform="rotate(-16 586 398)" fill="#151515"/>
      <rect x="705" y="380" width="70" height="310" transform="rotate(-16 705 380)" fill="#151515"/>
      <rect x="346" y="496" width="182" height="230" fill="url(#honeyGloss)" opacity="0.35"/>
    </g>
    <path d="M374 522L456 656L374 710L406 600L374 522Z" fill="#151515"/>
    <path d="M736 420H820L866 506L820 592H736L690 506L736 420Z" fill="#151515"/>
    <path d="M690 506L724 438L736 420H820L866 506L820 592H736L724 574L690 506Z" fill="url(#blackGloss)" opacity="0.5"/>
  </g>
  <defs>
    <linearGradient id="honeyGloss" x1="387" y1="293" x2="658" y2="673" gradientUnits="userSpaceOnUse">
      <stop stop-color="#FFD84A"/>
      <stop offset="1" stop-color="#F5A800"/>
    </linearGradient>
    <linearGradient id="blackGloss" x1="680" y1="414" x2="855" y2="585" gradientUnits="userSpaceOnUse">
      <stop stop-color="#303030"/>
      <stop offset="1" stop-color="#050505"/>
    </linearGradient>
    <filter id="softShadow" x="334" y="250" width="564" height="493" filterUnits="userSpaceOnUse" color-interpolation-filters="sRGB">
      <feDropShadow dx="0" dy="18" stdDeviation="16" flood-color="#000000" flood-opacity="0.18"/>
    </filter>
  </defs>
</svg>
