<svg width="1200" height="1200" viewBox="0 0 1200 1200" fill="none" xmlns="http://www.w3.org/2000/svg" role="img" aria-labelledby="title desc">
  <title id="title">GetMyBee logo</title>
  <desc id="desc">A geometric black and honey yellow bee mark above the GetMyBee wordmark.</desc>
  <rect width="1200" height="1200" fill="#FFFFFF"/>
  <g filter="url(#softShadow)">
    <path d="M478 274H596L678 412H516L468 328L478 274Z" fill="#FDBA00"/>
    <path d="M478 274H596L678 412H516L468 328L478 274Z" fill="url(#honeyGloss)" opacity="0.65"/>
    <path d="M438 462L664 422L722 562L654 656H456L374 522L438 462Z" fill="#FDBA00"/>
    <clipPath id="bodyClip">
      <path d="M438 462L664 422L722 562L654 656H456L374 522L438 462Z"/>
    </clipPath>
    <g clip-path="url(#bodyClip)">
      <rect x="464" y="420" width="56" height="282" transform="rotate(-16 464 420)" fill="#151515"/>
      <rect x="586" y="398" width="62" height="294" transform="rotate(-16 586 398)" fill="#151515"/>
      <rect x="705" y="380" width="70" height="310" transform="rotate(-16 705 380)" fill="#151515"/>
      <rect x="346" y="496" width="182" height="230" fill="url(#honeyGloss)" opacity="0.35"/>
    </g>
    <path d="M374 522L456 656L374 710L406 600L374 522Z" fill="#151515"/>
    <path d="M736 420H820L866 506L820 592H736L690 506L736 420Z" fill="#151515"/>
    <path d="M690 506L724 438L736 420H820L866 506L820 592H736L724 574L690 506Z" fill="url(#blackGloss)" opacity="0.5"/>
  </g>
  <g aria-label="GetMyBee">
    <path d="M294.1 760.7C314.5 760.7 332 767.2 345.2 779.8L329.2 799.4C319.9 790.7 308.1 786.1 294.8 786.1C270.1 786.1 253.7 803.2 253.7 828.3C253.7 854.1 270.5 871.5 296.1 871.5C308.3 871.5 319.2 868.3 326.5 862.8V842.6H291.5V818.9H354.3V875.5C340.4 888 319.1 895.5 294.2 895.5C253.6 895.5 223.9 866.9 223.9 828.3C223.9 789.6 253.4 760.7 294.1 760.7Z" fill="#151515"/>
    <path d="M416.1 795.2C447.1 795.2 467.4 817.1 467.4 849.8C467.4 853 467.2 856.3 466.8 859.6H394.9C398.5 869 407.1 874.8 419.4 874.8C429 874.8 436.7 871.8 443.8 865.7L459.6 883C448.9 891.8 435.1 896.2 418.5 896.2C387.4 896.2 366.4 875.7 366.4 845.8C366.4 816.3 386.6 795.2 416.1 795.2ZM394.5 839.2H439.1C437.4 826.3 428.7 818.6 416.7 818.6C404.2 818.6 396.4 826.2 394.5 839.2Z" fill="#151515"/>
    <path d="M511.4 769.7V797.4H537.8V820.1H511.4V859.6C511.4 868 515.4 872.2 523 872.2C527.9 872.2 532.5 870.9 536.6 868.3L543.5 890C536.5 894.1 527.4 896.2 516.7 896.2C495.5 896.2 482.7 884.1 482.7 861.5V820.1H466.5V797.4H482.7V769.7H511.4Z" fill="#151515"/>
    <path d="M587.8 763.4L626.6 832.5L665.5 763.4H697.2V893H668.2V810.9L636.1 867.5H617.2L585.1 811.2V893H556.3V763.4H587.8Z" fill="#FDBA00"/>
    <path d="M741.2 797.4L766.5 858.5L790.7 797.4H820.6L774.6 903.4C766.9 921.3 754.8 930 737.8 930C729.8 930 722.2 928.2 715.9 924.6L723.7 902.8C727.5 905.1 731.3 906.2 735.1 906.2C741.4 906.2 746.1 902.9 749.2 896.4L752.5 889.5L710.5 797.4H741.2Z" fill="#FDBA00"/>
    <path d="M838.6 763.4H899.5C925.7 763.4 942.3 777.4 942.3 798.5C942.3 811.7 935.7 822.3 923.9 827.9C939.1 832.8 947.8 844.6 947.8 860.6C947.8 880.9 931.2 893 902.4 893H838.6V763.4ZM867.7 786.9V818.5H895.7C907 818.5 913.4 812.5 913.4 802.7C913.4 792.8 907 786.9 895.7 786.9H867.7ZM867.7 840.9V869.5H899.2C912.4 869.5 919.1 864.5 919.1 854.9C919.1 845.4 912.4 840.9 899.2 840.9H867.7Z" fill="#151515"/>
    <path d="M1005.5 795.2C1036.5 795.2 1056.8 817.1 1056.8 849.8C1056.8 853 1056.6 856.3 1056.2 859.6H984.3C987.9 869 996.5 874.8 1008.8 874.8C1018.4 874.8 1026.1 871.8 1033.2 865.7L1049 883C1038.3 891.8 1024.5 896.2 1007.9 896.2C976.8 896.2 955.8 875.7 955.8 845.8C955.8 816.3 976 795.2 1005.5 795.2ZM983.9 839.2H1028.5C1026.8 826.3 1018.1 818.6 1006.1 818.6C993.6 818.6 985.8 826.2 983.9 839.2Z" fill="#151515"/>
    <path d="M1117.1 795.2C1148.1 795.2 1168.4 817.1 1168.4 849.8C1168.4 853 1168.2 856.3 1167.8 859.6H1095.9C1099.5 869 1108.1 874.8 1120.4 874.8C1130 874.8 1137.7 871.8 1144.8 865.7L1160.6 883C1149.9 891.8 1136.1 896.2 1119.5 896.2C1088.4 896.2 1067.4 875.7 1067.4 845.8C1067.4 816.3 1087.6 795.2 1117.1 795.2ZM1095.5 839.2H1140.1C1138.4 826.3 1129.7 818.6 1117.7 818.6C1105.2 818.6 1097.4 826.2 1095.5 839.2Z" fill="#151515"/>
  </g>
  <defs>
    <linearGradient id="honeyGloss" x1="387" y1="293" x2="658" y2="673" gradientUnits="userSpaceOnUse">
      <stop stop-color="#FFD84A"/>
      <stop offset="1" stop-color="#F5A800"/>
    </linearGradient>
    <linearGradient id="blackGloss" x1="680" y1="414" x2="855" y2="585" gradientUnits="userSpaceOnUse">
      <stop stop-color="#303030"/>
      <stop offset="1" stop-color="#050505"/>
    </linearGradient>
    <filter id="softShadow" x="334" y="250" width="564" height="493" filterUnits="userSpaceOnUse" color-interpolation-filters="sRGB">
      <feDropShadow dx="0" dy="18" stdDeviation="16" flood-color="#000000" flood-opacity="0.18"/>
    </filter>
  </defs>
</svg>
